<?xml version="1.0" encoding="utf-8"?>
<!-- Generator: Adobe Illustrator 16.0.0, SVG Export Plug-In . SVG Version: 6.00 Build 0)  -->
<!DOCTYPE svg PUBLIC "-//W3C//DTD SVG 1.1//EN" "http://www.w3.org/Graphics/SVG/1.1/DTD/svg11.dtd">
<svg version="1.1" id="Ebene_1" xmlns="http://www.w3.org/2000/svg" xmlns:xlink="http://www.w3.org/1999/xlink" x="0px" y="0px"
	 width="28.35px" height="28.347px" viewBox="0 0 28.35 28.347" enable-background="new 0 0 28.35 28.347" xml:space="preserve">
<g>
	<path fill="#3C3C3B" d="M25.038,9.286l-8.637,4.646l8.637,4.682l-1.424,2.416l-8.329-5.141l0.267,9.782h-2.797l0.308-9.782
		L4.693,21.03l-1.383-2.416l8.594-4.682L3.311,9.286l1.383-2.417l8.369,5.142l-0.308-9.787h2.797l-0.267,9.787l8.329-5.142
		L25.038,9.286z"/>
	<g>
		<path d="M8.081,11.67l-1.873,4.769H5.263L3.311,11.67h0.835l1.593,4.184l1.506-4.184H8.081z"/>
		<path d="M13.951,14.066c0,0.697-0.213,1.28-0.64,1.749c-0.463,0.504-1.087,0.756-1.873,0.756c-0.781,0-1.403-0.251-1.866-0.756
			c-0.432-0.469-0.648-1.052-0.648-1.749c0-0.703,0.216-1.288,0.648-1.757c0.463-0.504,1.085-0.757,1.866-0.757
			c0.786,0,1.41,0.252,1.873,0.757C13.738,12.778,13.951,13.364,13.951,14.066z M13.233,14.066c0-0.526-0.143-0.965-0.429-1.319
			c-0.327-0.411-0.784-0.617-1.371-0.617c-0.581,0-1.036,0.206-1.363,0.617c-0.285,0.354-0.428,0.793-0.428,1.319
			c0,0.521,0.143,0.96,0.428,1.319c0.327,0.412,0.782,0.617,1.363,0.617c0.587,0,1.044-0.205,1.371-0.617
			C13.09,15.027,13.233,14.587,13.233,14.066z"/>
		<path d="M18.597,16.439h-2.865v-0.624H16.8v-3.529h-1.068v-0.624h1.787v4.153h1.078V16.439z M17.628,10.709h-0.945V9.757h0.945
			V10.709z"/>
		<path d="M25.036,16.439h-0.719v-0.375c-0.432,0.338-0.9,0.507-1.404,0.507c-0.781,0-1.389-0.253-1.826-0.764
			c-0.396-0.458-0.596-1.041-0.596-1.749c0-0.708,0.199-1.291,0.596-1.749c0.438-0.51,1.045-0.765,1.826-0.765
			c0.504,0,0.973,0.169,1.404,0.507v-1.678H23.38V9.757h1.656V16.439z M24.317,15.339v-2.561c-0.414-0.438-0.881-0.656-1.402-0.656
			c-0.58,0-1.021,0.206-1.322,0.617c-0.254,0.349-0.381,0.789-0.381,1.319s0.127,0.971,0.381,1.319
			c0.301,0.412,0.742,0.617,1.322,0.617C23.437,15.995,23.903,15.776,24.317,15.339z"/>
	</g>
</g>
</svg>
